<svg style="position:absolute; top:0; left:0; width:0; height:0;" xmlns="http://www.w3.org/2000/svg" xmlns:xlink="http://www.w3.org/1999/xlink"><symbol fill="currentColor" viewBox="0 0 10 10" id="icon-arrow" xmlns="http://www.w3.org/2000/svg"><path d="M6 1.9h2v2H6v-2Z"/><path d="M2.5 0H10v2H2.5V0Z"/><path d="M10 0v7.6H8V0h2ZM4 3.9h2v2H4V4ZM2 6h2v2H2V6ZM0 8h2v2H0V8Z"/></symbol><symbol fill="currentColor" viewBox="0 0 10 10" id="icon-point" xmlns="http://www.w3.org/2000/svg"><path d="M2 2h6v6H2V2Zm6 2h2v2H8V4ZM4 0h2v2H4V0ZM0 4h2v2H0V4Zm4 4h2v2H4V8Z"/></symbol></svg>